<?xml version="1.0" encoding="utf-8"?>
<svg xmlns="http://www.w3.org/2000/svg">
<symbol id="angular-icon-logo-svgrepo-com" viewBox="-7 0 270 270"><path d="M127.606.341.849 44.95 20.88 211.022l106.86 58.732 107.412-59.528L255.175 44.16z"/><path d="M242.532 53.758 127.31 14.466v241.256l96.561-53.441 18.66-148.523zm-227.459.708 17.165 148.525 95.07 52.731V14.462z"/><path d="M159.027 142.898 127.31 157.73H93.881l-15.714 39.305-29.228.54L127.31 23.227l31.717 119.672zm-3.066-7.467-28.44-56.303-23.329 55.334h23.117z"/><path d="m127.309 23.226.21 55.902 26.47 55.377h-26.62l-.06 23.189 36.81.035 17.204 39.852 27.967.518z"/>
</symbol>
<symbol id="angular-svgrepo-com" viewBox="0 0 32 32"><path d="M16 2 2.966 6.648l1.988 17.234L16 30l11.046-6.118 1.988-17.234z"/><path d="M16 2v3.108-.014V30l11.046-6.118 1.988-17.234z"/><path d="m16 5.094-8.148 18.27h3.038l1.638-4.088h6.916l1.638 4.088h3.038zm2.38 11.662h-4.76L16 11.03Z"/>
</symbol>
<symbol id="bootstrap-fill-svgrepo-com" viewBox="0 0 24 24"><path fill-rule="evenodd" d="M4.985 2c-1.37 0-2.383 1.199-2.337 2.498.043 1.25-.013 2.867-.42 4.186-.41 1.322-1.1 2.16-2.228 2.268v1.215c1.128.107 1.819.945 2.227 2.268.408 1.319.464 2.936.42 4.185-.045 1.3.968 2.499 2.338 2.499h14.032c1.37 0 2.383-1.199 2.337-2.499-.043-1.249.013-2.866.42-4.185.409-1.323 1.098-2.16 2.226-2.268v-1.215c-1.128-.108-1.817-.946-2.226-2.268-.407-1.32-.463-2.937-.42-4.186C21.4 3.198 20.386 2 19.017 2zM16.27 13.769c0 1.79-1.335 2.875-3.55 2.875H8.949a.407.407 0 0 1-.407-.407V6.881a.407.407 0 0 1 .407-.406h3.75c1.847 0 3.06 1 3.06 2.537 0 1.078-.816 2.043-1.855 2.213v.056c1.415.155 2.367 1.135 2.367 2.488M12.31 7.764h-2.15v3.038h1.811c1.4 0 2.172-.564 2.172-1.572 0-.944-.664-1.466-1.833-1.466m-2.15 4.243v3.347h2.23c1.457 0 2.23-.585 2.23-1.684 0-1.1-.794-1.663-2.324-1.663z" clip-rule="evenodd"/>
</symbol>
<symbol id="css-3-svgrepo-com" viewBox="0 0 32 32"><path d="M6 28 4 3h24l-2 25-10 3z"/><path d="M26 5H16v24.5l8-2.5z"/><path d="M19.5 17.5h-10L9 14l8-2.5H9l-.5-3H24l-.5 3.5-6.5 2.5h6L22 24l-6 2-6-2-.5-5h3l.5 2.5 3 1 3-1z"/>
</symbol>
<symbol id="css3-02-svgrepo-com" viewBox="0 0 512 512"><path d="m483.111.501-42.59 461.314-184.524 49.684L71.47 461.815 28.889.501zM397.29 94.302H111.866l6.885 55.708h144.78l-7.7 3.205-132.07 55.006 4.38 54.453 127.69.414 68.438.217-4.381 72.606-64.058 18.035v-.057l-.525.146-61.864-15.617-3.754-45.07h-57.789l7.511 87.007 116.423 34.429v-.062l.21.062 115.799-33.802 15.021-172.761H255.509l.323-.14 135.83-58.071z"/>
</symbol>
<symbol id="email-svgrepo-com" viewBox="0 0 24 24"><path fill-rule="evenodd" d="M7 2.75c-1.615 0-3.075.404-4.135 1.388C1.795 5.132 1.25 6.607 1.25 8.5v7c0 1.893.545 3.369 1.615 4.362 1.06.984 2.52 1.388 4.135 1.388h10c1.615 0 3.075-.404 4.135-1.388 1.07-.993 1.615-2.469 1.615-4.362v-7c0-1.893-.545-3.368-1.615-4.362-1.06-.984-2.52-1.388-4.135-1.388zm12.229 5.612a.75.75 0 0 0-.918-1.187l-5.547 4.287a1.25 1.25 0 0 1-1.528 0L5.689 7.175a.75.75 0 1 0-.918 1.187l5.548 4.287a2.75 2.75 0 0 0 3.362 0z" clip-rule="evenodd"/>
</symbol>
<symbol id="express-svgrepo-com" viewBox="0 0 24 24"><path d="M24 18.588a1.53 1.53 0 0 1-1.895-.72l-3.45-4.771-.5-.667-4.003 5.444a1.466 1.466 0 0 1-1.802.708l5.158-6.92-4.798-6.251a1.595 1.595 0 0 1 1.9.666l3.576 4.83 3.596-4.81a1.435 1.435 0 0 1 1.788-.668L21.708 7.9l-2.522 3.283a.666.666 0 0 0 0 .994l4.804 6.412zM.002 11.576l.42-2.075c1.154-4.103 5.858-5.81 9.094-3.27 1.895 1.489 2.368 3.597 2.275 5.973H1.116C.943 16.447 4.005 19.009 7.92 17.7a4.08 4.08 0 0 0 2.582-2.876c.207-.666.548-.78 1.174-.588a5.42 5.42 0 0 1-2.589 3.957 6.27 6.27 0 0 1-7.306-.933 6.58 6.58 0 0 1-1.64-3.858c0-.235-.08-.455-.134-.666A88 88 0 0 1 0 11.577zm1.127-.286h9.654c-.06-3.076-2.001-5.258-4.59-5.278-2.882-.04-4.944 2.094-5.071 5.264z"/>
</symbol>
<symbol id="firebase-svgrepo-com" viewBox="0 0 32 32"><path d="m5.8 24.6.17-.237 8.02-15.214.017-.161-3.535-6.64a.656.656 0 0 0-1.227.207Z"/><path d="m5.9 24.42.128-.25 7.937-15.056-3.526-6.666a.6.6 0 0 0-1.133.206Zm10.684-10.41 2.632-2.7-2.633-5.021a.678.678 0 0 0-1.195 0l-1.407 2.682V9.2Z"/><path d="m16.537 13.9 2.559-2.62-2.559-4.88a.589.589 0 0 0-1.074-.047l-1.414 2.729-.042.139Z"/><path d="m5.802 24.601.077-.078.279-.113 10.26-10.222.13-.354-2.559-4.878z"/><path d="m16.912 29.756 9.288-5.179-2.654-16.331a.635.635 0 0 0-1.075-.346L5.8 24.6l9.233 5.155a1.93 1.93 0 0 0 1.878 0"/><path d="M26.115 24.534 23.483 8.326a.557.557 0 0 0-.967-.353L5.9 24.569l9.131 5.1a1.91 1.91 0 0 0 1.863 0Z"/><path d="M16.912 29.6a1.93 1.93 0 0 1-1.878 0l-9.158-5.078-.076.078 9.233 5.155a1.93 1.93 0 0 0 1.878 0l9.289-5.178-.023-.14Z"/>
</symbol>
<symbol id="flask-svgrepo-com" viewBox="0 0 512 512"><path fill-rule="evenodd" d="M145.973 124.482c-1.766-15.299 12.003-8.814 10.244.41-2.584 2.458-7.357.442-10.244-.41m16.39-2.869c3.468-.354 6.774-.874 7.787-3.687-4.797-2.957-11.965 4.339-9.016 7.787 1.637-.139.189-3.362 1.229-4.1m-45.895 9.425c2.888-1.343 7.633-.836 9.016-3.687-8.596-2.994-24.076-.784-26.638 4.917 6.553-.405 12.033-5.605 17.622-1.23m-19.261 1.641c-1.862-.391-2.58 1.724-1.638 2.867 1.455-.048 1.649-1.356 1.638-2.867m-4.508 8.196c-.262-3.909-9.718-7.03-10.653-1.639.818 3.061 8.445 5.03 10.653 1.639m-15.98-3.687c-1.953.091-2.957 1.142-4.099 2.048 1.486.866 4.778.556 4.099-2.048m-4.916 11.062c7.218-.507 9.415 6.13 15.569 5.327 1.147-7.144-13.535-16.971-15.569-5.327m97.526 35.649c-2.152-7.142 4.438-13.272.409-18.851-5.578.445-10.402 26.334-2.458 26.23 5.704-.079 7.715-15.738 8.194-20.898-4.176 2.374-2.357 10.752-6.145 13.519m-68.433-2.865c.124-1.083-.568-1.347-1.639-1.233.027 1.106.936 1.971 1.639 1.233m20.08 11.883c.079-2.539-.021-4.897-2.048-5.327-1.543-.175-1.451 1.281-2.46 1.641.563 2.166 1.707 3.757 4.508 3.686m-19.67 13.114c7.857.884 13.118 6.552 20.489 6.554-5.878-3.957-11.985-7.683-21.309-8.194-.297 1.118.814.825.82 1.64m61.877 6.146c-.611-2.805-1.828-5.005-3.277-6.968.533 2.88 1.268 5.559 3.277 6.968m-45.077 9.014c-5.143-6.882-13.337-12.879-22.537-14.343 1.299 10.993 13.519 11.072 22.537 14.343m-13.931 2.457c-3.512-5.911-9.533-9.317-16.803-11.471 4.086 5.078 7.829 12.646 16.803 11.471m-18.851-5.734c1.399 2.429 4.916 4.912 4.099 8.195-3.593-1.05-5.34-3.949-9.016-4.917 1.952 2.711 9.402 14.729 13.931 14.345 2.891-.25 4.198-3.441 3.688-8.606-2.215-4.755-9.266-6.853-12.702-9.017m20.899 10.654c.911 2.505 1.231 5.598 4.509 5.735-.558-2.855-2.226-4.604-4.509-5.735m-2.869 1.231c-1.528-.167-2.403.324-2.457 1.636.459.09.638.454.818.819 1.31-.051 1.806-.927 1.639-2.455m70.073 9.423c.427-2.316.861-6.778 0-9.016-.526 2.302-2.505 7.48 0 9.016m-28.684-8.606c.313 2.422-.858 6.323 1.229 6.97.091-1.793.509-5.831-1.229-6.97m19.259 9.426c-1.189-1.054-2.895.539-3.688-.408-.838-2.713-.491-6.61-2.868-7.787h-.818c-3.375 6.99-3.042 22.007 2.867 25.814 1.116 1.891 1.225 4.787 4.098 4.92 2.362-1.875 2.942-5.524 3.279-9.428-5.129-1.077-.351-9.918-2.87-13.111m12.295 4.505c.505-3.628 3.607-8.905 1.229-12.7-.785 3.591-2.271 8.652-1.229 12.7m-72.122 3.283c.653-1.873.14-5.05-1.23-6.148-.956 1.794-1.512 5.926 1.23 6.148m7.375 1.637c1.655 1.077 1.782 3.68 4.099 4.098 2.883-3.68-2.586-10.166-4.099-4.098m70.073 8.194c.003 1.256-1.643 2.974-.409 4.097.237-1.015 1.484-3.127.409-4.097m3.687 15.982c-.017-1.892.231-4.05-.818-4.915-.184 1.459-1.265 4.69.818 4.915m-52.041 16.804c.243 1.526.492 3.057 2.048 3.277 1.005-1.406.263-3.896-2.048-3.277m18.44 2.05c.57 1.082 2.208 3.231 3.277 2.454-.948-.699-2.042-3.401-3.277-2.454m38.928 4.508c-1.151 4.879 1.574 9.324 3.689 12.293.866-4.757.785-11.569-3.689-12.293m10.247 31.547c.619-1.239.838-5.057-.41-5.73-1.079 1.48-2.041 5.023.41 5.73m18.436 19.674c-.593-3.011-2.952-6.263-5.325-6.15.83 2.993.974 6.678 5.325 6.15m3.692 5.735c.017 1.896-.229 4.059.818 4.915.053-1.959.025-3.847-.818-4.915m-135.23.411c.006 1.501.809 2.196 1.641 2.869-.164-1.343-.356-2.648-1.641-2.869m149.982 22.535c-1.009-7.727-5.073-12.404-10.244-15.977.74 7.997 4.659 12.825 10.244 15.977m65.976 40.571c-.249-.232-1.946-.956-2.05 0 .616.474 1.726 1.439 2.05 0m207.761 30.324v4.508c-.666 1.385-.882 3.215-1.231 4.916-11.395 7.318-32.803 4.624-42.209 13.935-16.497-8.887-31.829 5.111-49.17 6.559-2.865.236-6.051-.241-9.021 0-10.246.827-20.252 3.223-30.731 4.096-10.745.895-21.512 1.551-32.781 2.05h-12.293c-50.825-2.669-101.077-9.506-138.508-26.228-18.661-8.338-35.838-18.567-51.632-30.735-15.37-11.835-31.147-24.993-42.21-39.747-11.778-15.711-23.562-30.989-34.012-48.352-10.081-16.759-19.504-34.412-27.864-54.094-8.247-19.408-14.123-38.613-19.672-62.287-3.627-15.484-7.455-33.015-13.932-47.534-2.522-5.654-5.458-10.282-5.736-15.574v-3.687c2.021-17.212 15.407-27.203 31.143-31.965 3.94-1.191 7.771-2.329 11.474-4.508.241-.139 2.602-.38 1.641-1.638-7.011-1.687-12.779 8.635-20.489 5.737-6.845-2.574-2.904-13.172 4.508-16.391 3.46-1.503 10.33-1.894 13.521-3.688 5.502-3.092 7.999-9.625 6.968-15.572-.611-3.514-4.258-5.364-4.098-8.196.224-3.949 7.285-7.383 10.653-9.835 4.121-2.999 8.999-6.745 8.606-11.474-.414-4.94-6.224-6.514-9.016-10.244C51.027 42 50.332 33.25 57.458 29.821c7.471-3.595 21.39-1.636 22.949 7.787 1.374 8.305-4.522 11.469-2.051 17.62 4.604 11.446 40.409-6.672 31.556 17.212 7.874 12.343 38.645 1.784 39.339 21.309 12.834.258 18.732 9.997 29.094 13.933 2.777 1.054 6.084 1.054 9.016 2.048 17.476 5.94 39.132 12.312 46.305 29.095-6.482 4.367-15.328 1.443-22.946-1.229-6.627-2.327-16.287-6.935-22.949-4.099-6.605 2.813-6.252 14.098-5.327 25.405 2.46 30.102 3.903 61.151 8.194 88.104 5.993 37.623 18.803 67.756 36.883 91.384 17.49 22.859 38.037 46.796 64.743 63.518 22.535 14.105 47.853 25.234 79.91 32.37 4.754 1.061 10.501 3.377 13.112 2.869 3.871-.744 12.201-12.001 15.166-14.75 7.049-6.554 16.534-15.724 26.631-7.789-1.372 10.925-11.161 13.433-13.523 23.362 6.071 3.863 12.509.366 20.082.815 8.812.524 15.569 5.577 22.951 4.508 4.711-.682 7.069-4.191 10.653-6.554 8.142 11.903 39.534-3.592 44.255 11.063m-88.927-30.324c-.174-1.322.541-3.543-.818-3.684-1.182.599-2.35 4.366.818 3.684M216.457 128.99c4.014 2.404 7.548 5.292 11.063 8.199 2.116-6.231-3.957-10.217-11.063-9.837zm110.231 302.011c1.563.329 2.694.641 2.869-1.227-1.46-.095-2.453.271-2.869 1.227m-56.552-36.063c-.138 1.93 3.755 1.967 4.512 1.639-.641-1.281-2.583-2.944-4.512-1.639m-9.835-7.784c.682.69 2.407.324 3.688.411.137-1.501-.458-2.278-.819-3.281-2.154-.236-2.749 1.077-2.869 2.87M181.623 219.55c-1.112-.942-1.919.784-2.459 0 1.335-10.166 3.48-25.818-.819-34.418-1.063-.928-2.745.326-3.277-.412 2.861-6.83 4.793-21.075 3.687-29.504-.389-2.971-1.932-8.255-3.687-9.425-4.41-2.936-8.423 1.576-11.476 2.459-1.921.56-4.057.16-6.146.408-8.263.996-17.031 3.46-22.537 6.146 2.87 1.913 6.938 2.624 8.194 6.146-7.14-.505-12.71-2.583-18.851-4.096.655 9.245-10.683 6.348-17.619 6.968 2.396.052 2.78 1.21 2.869 2.867.285 5.439-17.613 11.885-23.768 7.789-8.779 7.078 3.863 14.308 3.278 23.358-1.726 1.279-2.523 3.485-4.098 4.913-8.725.212-17.902 1.967-16.394 11.066-1.179-.688-3.039-1.147-4.508-.412-2.23 5.745 1.514 11.981 6.559 13.116 1.271-.37 1.567-1.711 3.278-1.639 11.396 2.179 15.408 9.737 14.753 24.174-.114 2.486.133 5.73-1.639 7.379-6.467-.443-12.463-16.405-2.05-16.8-2.497-3.674-4.388-9.155-9.016-9.018-5.305.158-7.686 8.542-11.474 11.475 5.46 3.017 18.283 11.343 7.785 16.801 5.197.779 8.097 2.84 10.244 5.734 3.578 4.832 3.464 12.072 6.148 15.985 5.431 7.922 8.298-7.106 14.75-.823 1.524.524-.671-1.48-.819-1.635-5.535-5.976-13.977-10.874-17.21-18.031 2.485-1.139 5.816.104 8.194.408.94-4.814-2.405-10.262-1.229-13.936.847-2.634 2.41-1.474 4.099-2.456.993-.578.216-2.73 2.05-2.048-.011 5.626-3.401 15.094.407 19.259 5.561.998 7.167-8.565 11.886-8.605 2.636-.023 5.127 4.617 6.965 6.966 2.208 2.819 5.209 6.283 4.508 9.423-1.476 6.62-12.594 1.58-16.391-1.23 2.314 9.186 16.553 10.612 17.21 22.543.075 1.331-.597 3.031-.409 4.504.805 6.296 6.676 10.975 12.702 6.97.886 2.258 1.002 5.285 3.281 6.146 1.996-1.688 1.287-6.089 2.457-8.608 7.15 1.497 10.883 4.94 13.112 10.654 1.104 2.827.819 8.067 5.327 8.196.69-6.986-4.784-11.315-5.735-18.031 3.673 5.926 16.922 12.338 16.392 21.72-.352 6.188-7.706 6.861-14.753 7.785 6.716 2.308 9.529 9.83 16.801 12.292 1.954.666 4.464.096 6.556.823 5.321 1.851 13.829 12.759 11.476 19.67-11.338 5.714-20.184-9.73-32.784-9.423 5.313 6.774 14.004 9.028 21.309 12.293 7.862 3.51 15.734 7.106 23.358 10.653 17.972 8.359 30.447 19.296 42.209 33.193-8.161 4.45-32.897-2.952-18.031-8.2-5.171-.175-10.644-3.418-15.164-1.634 2.396 15.636 22.968 13.095 38.522 15.569-1.416 2.682-3.412 4.786-4.919 7.377 1.199.707 2.856.965 4.919.819-.996 1.597-3.589 1.601-3.69 4.096 1.992 2.653 5.935 3.356 8.606 5.327 10.531-7.552 11.712 9.581 18.44 9.835 6.358.237 7.577-8.899 13.936-9.835-1.598 3.323-4.725 5.111-6.146 8.608 6.226-1.505 8.001-4.857 13.107-6.15 18.298-4.629 33.298 10.612 48.355 12.297 5.414.603 10.796 3.643 15.573 4.508 6.176 1.114 9.973-.919 14.751-3.277-7.277-6.795-23.986-4.149-29.912-12.297.229-1.409 1.193-2.083 2.05-2.865-19.18 4.213-31.256-7.281-39.34-18.031-23.662-6.112-44.421-15.133-54.504-34.831-.484-1.855 1.817-.915 1.233-2.87-8.319-9.257-16.634-18.655-23.358-29.505-2.324-3.746-3.915-8.454-6.558-11.473-1.674-1.913-4.483-2.966-6.146-4.92-1.821-2.142-2.069-4.824-4.92-5.734-1.096 1.634-.361 5.098-1.227 6.965-1.971-7.913-6.362-15.428-14.752-15.573-.156-5.755 4.493-6.703 6.965-9.835-3.254-3.913-4.038-8.841-5.736-14.75-4.128-14.359-7.539-29.359-11.066-42.62-4.674 1.745-5.913 6.926-8.194 11.065.225-5.92.502-11.792 3.689-14.755 1.457.183 1.617 1.664 2.457 2.46.77-2.792 3.412-5.396 2.048-9.014-1.058-1.634-4.151-.872-4.915-.819 2.022-4.949 3.72-13.931 1.231-19.67m164.734 243.007c3.543-1.514 6.732-3.377 8.192-6.97-3.851.965-9.281 2.42-8.192 6.97m.408-8.197c-2.37 1.313-5.036 2.341-6.554 4.508 3.397.203 7.377-3.207 6.554-4.508m-12.701 6.146c2.32-.619 4.803-3.015 4.508-4.919-2.694.27-6.861 2.191-4.508 4.919m1.639-9.427c-3.688-1.165-6.699 1.722-6.97 5.331 3.286-.815 5.51-2.69 6.97-5.331m-11.477.823c-3.602.628-6.296 2.162-7.377 5.323 4.403 1.747 6.657-2.037 7.377-5.323m-5.735 10.655c1.015.058 1.987.074 2.05-.823-.615-.65-2.337-.6-2.05.823m6.558-17.624c-5.734-.44-12.592 3.281-9.016 8.196 3.818-1.921 7.685-3.788 9.016-8.196m-28.278 7.789c3.581.503 4.517-3.593 6.97-2.874 1.423.898.558 4.088 2.865 4.101 5.36-1.09 7.29-8.404 4.097-13.523-7.224 1.271-13.833 5.247-13.932 12.296m1.638-10.655c-2.175 1.102-4.491 2.059-5.734 4.096 2.681-.116 6.674-3.073 5.734-4.096m-11.469 2.05c.229 1.09-1.688 2.084-.416 2.865.341-.515 2.496-2.541.416-2.865m-7.377 9.831c-.129.558-.586.782-.407 1.639h1.639c.111-1.073-.155-1.76-1.232-1.639m-6.146-2.046c-2.071.116-2.854 1.518-2.87 3.685 1.784-.396 3.41-.957 2.87-3.685m-41.393-20.901c-2.525-.111-3.295.279-.407.824 2.751.507 7.604.773 9.426 0-2.163-.025-7.752-.765-9.019-.824m12.297-6.554c-2.144-1.63-6.454-.449-8.605.408 1.241 3.41 7.335 1.896 8.605-.408m-13.111 30.732c10.22 5.356 24.292 11.203 38.926 9.424-10.634-5.207-26.448-7.428-38.926-9.424m-15.164-4.508c.979 1.344 3.291 1.352 4.915 2.051 3.025-2.924-3.624-4.571-4.915-2.051m-38.521-33.193c-2.766.241-5.776.233-6.556 2.462 2.635.977 6.448.37 6.556-2.462m-7.787 10.654c.963.873 2.734 1.913 3.279 0-.424-.433-2.925-.844-3.279 0m4.918-34.832c.372-1.713-2.891-2.361-3.277-.818.898.464 1.676 1.055 3.277.818m5.329 13.931c-.02-.562.193-.898.409-1.227-1.221-1.261-3.69-1.485-5.738-.819.328 1.971 3.61 2.794 5.329 2.046m.41 26.232c.524.558 1.934.558 2.458 0 .193-1.289-.512-1.676-1.229-2.054-.368.728-.99 1.197-1.229 2.054m12.704-47.128c-1.335-3.859-5.688-2.841-8.607-4.097-4.691-2.021-8.696-6.845-14.753-6.965h-.817c5.268 6.208 12.24 12.879 24.177 11.062m-21.311-15.158c-3.825-2.599-8.015-4.832-13.523-5.738 1.751 4.395 8.567 5.909 13.523 5.738m12.703 19.254c2.873 3.003 6.479 5.273 12.704 4.916-2.393-3.211-8.111-5.27-12.704-4.916m15.572 18.443c-4.219-2.924-10.855-7.668-16.391-6.559 3.202 4.176 9.639 7.303 16.391 6.559m-15.572 15.573c-.099.583-.674.687-.819 1.223 1.01 1.318 2.53-.948.819-1.223m9.425 12.293c.348 1.563 1.853 1.971 3.279 2.458.555-.948 1.646-1.36 1.229-3.277-.996-.599-4.578-.944-4.508.819m7.787-18.031c-1.269-.777-5.897-1.646-6.968 0 1.988.807 5.893 2.895 6.968 0m1.229-13.936c.41-3.048-3.038-3.061-4.508-2.05.138 2.05 2.85 1.527 4.508 2.05m4.507-22.127c-1.851-2.795-6.992-2.296-10.654-3.277-2.682-3.368-9.095-4.591-14.752-3.688 6.479 4.316 13.848 7.734 25.406 6.965m-.819 39.339c1.76 1.519 4.519 2.038 6.966 2.87.131-.965.646-1.539.409-2.87-1.193-1.376-6.37-2.087-7.375 0m-34.832-66.386c.41-1.912-.715-2.287-2.459-2.046-.618 2.121 1.426 1.576 2.459 2.046m9.835 4.92c-1.197-.304-.794-2.208-2.459-2.05-1.51 1.385 1.21 3.493 2.459 2.05m-28.275 2.869c-1.36-3.007-4.425-4.316-6.556-6.558 3.996-5.789-4.92-8.159-6.557-12.293-.019-1.247.865-1.593 1.229-2.462-3.443-2.017-7.419-3.505-9.426-6.961 1.585-1.147 5.81.341 7.375-.823-2.482-1.069-5.162-1.938-6.146-4.508 1.437-3.344 7.279-2.279 8.605-5.735-7.059-1.559-14.072-5.31-21.72-4.919.087 2.919 2.685 3.326 3.688 5.327-2.267-1.007-4.101-2.458-7.375-2.458-.245 2.021 1.064 2.487.821 4.508-2.235.183-3.368-.731-5.739-.407 1.69 3.771 6.024 4.902 7.378 9.016-1.676.424-3.951-.666-4.508 0 4.326 3.593 10.644 7.381 13.111 11.469-4.025-.748-6.329-3.227-10.242-4.096 3.276 6.487 11.253 7.839 17.21 11.065 6.098 3.301 11.562 8.625 18.852 9.835m-9.016 4.916c1.713.936 5.123 3.908 7.377 1.643-1.9-.842-4.889-2.754-7.377-1.643m-3.277-2.051c-1.153-1.867-7.036-2.861-8.604-1.639 2.674.77 5.194 2.845 8.604 1.639m-7.377 1.231c-.129.557-.582.781-.409 1.643.721-.237 2.407.49 2.459-.412-.636-.457-.855-1.331-2.05-1.231m-5.327-54.502c-1.118-3.851-2.611-8.071-5.736-11.062-1.683-1.613-3.313-1.58-4.508-3.693-3.167-5.572-1.649-13.439-5.737-19.254-.967-.315-2.832-.811-3.688 0 .077 2.687 6.313 9.058 2.051 12.293-9.424.374-13.052-7.128-22.128-5.739-2.044 5.294 5.182 8.014 3.276 11.886 13.036 4.184 23.389 13.249 36.47 15.569m-29.505 12.293c2.408 1.834 5.889 4.766 9.016 4.508-2.477-1.755-4.756-5.888-9.016-4.508m-4.508-3.684c-1.063-3.307-2.906-5.835-6.966-6.146.826 3.542 4.675 4.067 6.966 6.146m-6.966 10.654c2.194 1.501 4.373 5.181 6.557 5.327-1.597-2.092-3.543-6.013-6.557-5.327m2.87-28.278c.212-.607.604-1.031.819-1.639-1.051-1.447-3.642-.657-4.097.823.806.558 2.34.392 3.278.816m63.517 16.392c-.058-3.526-3.975-5.572-6.967-3.685.948 2.604 3.805 3.295 6.967 3.685m-38.523-53.677c.069-.678-2.523-.678-2.457 0 .562.124 2.472 1.85 2.457 0m-15.978-1.643h-1.641c-.563.527-.405 1.784-.41 2.865.749.112 2.298 1.48 2.87.415-1.014-.357.118-2.852-.819-3.28m-30.737-.412c1.358 3.09 6.855 2.861 7.787-.407-2.332-.903-5.767-.275-7.787.407m1.232-11.474c-1.585-.079-3.021-.013-4.101.412.319 1.788 4.09 1.47 4.101-.412m3.686-65.973c-2.106.973-6.498-.975-8.604 0 1.865 7.383 15.688 3.408 14.753-2.46-.794-4.978-13.939-3.745-18.441-3.277 3.489 2.52 9.035 2.984 12.292 5.737m-16.39 7.785c.771 1.142 2.89.934 4.098 1.639.237-.854 1.017-1.168.819-2.458-1.075-.568-4.943-1.015-4.917.819m20.9-1.638c-.221.894-.994 2.651.407 2.869.976-.688.772-2.275-.407-2.869m11.474-24.588c-.108-1.198.925-1.256.819-2.458-1.666-.163-2.857.149-2.87 1.638.78.178 1.029.883 2.051.82m-.41-90.972c-1.632 10 7.378 22.097 18.029 18.439.497-3.774-1.225-5.329-1.229-8.604 2.718-.659 4.318 1.951 5.736 1.229-3.986-7.213-14.589-7.81-22.536-11.064m-4.51-9.425c3.602.713 9.255.352 10.656-2.459-2.721-1.818-10.885-2.305-10.656 2.459m-9.835-28.686c.788-7.959-8.938-12.357-14.75-6.965-3.633 3.368-5.211 11.502.409 14.343-.638-2.096-2.501-2.963-2.048-6.146 4.271-2.442 12.102 1.191 16.389-1.232m-2.865 26.226c1.042-.595 2.607-.666 2.458-2.458-1.26.127-3.407 1.485-2.458 2.458m-8.608 30.324c5.11.121 8.963-2.761 13.933-2.867 4.302-.091 8.402 1.189 13.523.819-3.657-10.733-21.426-1.36-27.456 2.048m-7.785 18.851c9.669-1.229 23.14-7.591 36.061-6.146 4.874.544 9.143 3.287 11.883 5.327-1.397-1.491-3.052-7.61 0-8.604 6.725 1.281 6.949 13.987 15.162 12.293 4.184-.863 5.458-8.979 3.279-13.933 3.127 2.2 4.738 5.916 9.016 6.967-.976-3.942-3.813-6.023-5.736-9.016 1.208-1.522 2.79-2.674 2.457-5.739-11.727-1.127-22.136 5.203-33.193 7.377-8.581 1.69-14.967 3.364-22.535 5.327-5.69 1.475-12.021 2.51-16.394 6.147m-34.422 84.827c-.563.522-.714 2.448.409 2.458.337-.297 1.1-2.836-.409-2.458m14.34-48.764c-17.969 2.851 1.184 21.961 11.886 17.212 1.355-2.081.934-3.988.819-6.97 6.235.611 10.926-2.426 16.393-1.227.882 1.905-.786 3.518-1.23 5.325 18.593-1.179 27.799-15.788 47.943-18.029 2.503-.279 5.356.164 8.198 0 8.483-.495 17.88-2.067 26.636-3.689 8.591-1.588 16.446-4.747 23.766-6.554 9.187-2.271 23.163-8.271 21.311-20.491-.212-1.391-1.177-2.641-2.05-4.098-48.834-4.722-85.346 14.422-123.754 22.129-4.614.925-10.224.31-13.934 4.096 1.342 3.302 6.058 3.231 8.194 5.737-1.068 1.252-3.709.932-4.096 2.87.904 3.466 6.042 2.694 6.556 6.558-8.157 5.75-25.261-1.584-21.309-13.114-12.325 2.701-30.27 5.385-30.323 19.26-.025 6.115 3.62 11.771 7.784 15.162-2.821-12.91 1.974-32 17.21-24.177m15.164 76.629c.373-2.775-4.188-4.718-5.736-2.867 1.51 1.357 3.874 1.858 5.736 2.867m-14.343 5.327c2.898 10.076 3.841 22.113 11.474 27.456-1.149-11.828-5.346-20.607-11.474-27.456m17.211-10.654c1.276-5.785-7.211-8.051-7.785-4.099-.501 3.442 4.926 3.042 7.785 4.099M55 211.356c-1.85-2.023-6.493-3.277-9.834-2.458 1.179 2.901 8.433 7.194 9.834 2.458m-4.917-18.029c1.851-1.154 3.815-2.198 4.096-4.92-2.378-1.78-8.071-2.031-8.604.824-.403 2.158 2.489 3.033 4.508 4.096m5.327 6.965c.179-1.408-.162-2.295-.41-3.279-2.102-.052-3.083 1.015-3.278 2.871 1.02.344 2.195.535 3.688.408m-28.685-2.048c-.316-1.05-.41-2.323-1.229-2.868-1.019 1.103-1.058 3.084 1.229 2.868m4.098-27.864c-1.839-.717-4.561.048-5.327 1.638.86.776 2.098 1.181 3.278 1.637.414-1.356 2.267-1.281 2.049-3.275m4.505 52.861c-1.06-2.354-1.193-5.635-3.276-6.965-5.611.798-.052 8.859 3.276 6.965m7.787 44.255c4.001 9.673 8.224 20.128 16.803 24.586-6.415-7.137-7.929-18.946-12.295-27.455-1.51-2.936-3.919-5.219-5.327-8.193-3.313-7.003-4.84-15.174-11.473-18.441 2.614 10.305 8.213 19.631 12.292 29.503m112.693 153.671c-2.48-8.446-9.137-12.722-18.441-14.343-2.3-5.485-8.938-6.629-10.244-13.112-.212-1.331 2.538-1.801 1.641-2.458-12.472 2.362-12.912-10.857-18.851-16.393-14.987.271-12.199-18.272-20.489-27.862-2.368-2.744-4.716-3.377-7.377-6.146-4.095-12.691-14.782-19.129-20.899-30.323-5.433-9.947-6.576-21.167-15.571-28.278 7.117 24.095 22.364 44.463 36.061 64.748 10.964 16.23 18.42 31.688 30.733 44.663 4.184 4.403 8.908 7.352 13.934 11.473 8.549 7.01 14.436 20.014 29.503 18.031m-1.641-27.867c-.441-1.755-3.602-2.939-5.327-2.046a20.7 20.7 0 0 0 5.327 2.046m15.162-10.654c-2.776-3.235-8.588-4.467-13.932-6.555-6.629-2.595-16.087-5.052-20.898-2.05.484 4.021 3.687 5.327 5.736 7.785 5.693.877 8.951 3.655 14.341 4.096 6.353.525 12.286.242 14.753-3.276m195.467 93.434c-12.4-5.655-30.586.707-43.848-2.462-2.503-.599-4.716-2.32-6.965-2.458-2.237-.137-4.841 1.044-6.966 1.231-11.357 1.01-21.725-.112-32.37-1.643-7.469-1.073-15.424-1.493-22.132-3.277-6.425-1.705-13.07-5.639-19.67-8.196-6.697-2.591-13.669-5.173-20.079-7.785-12.646-5.152-26.086-14.068-39.34-17.619 8.941 9.498 24.334 12.55 34.834 20.489-14.838-4.15-26.034-11.939-39.34-17.62 10.367 9.282 24.833 14.904 39.34 20.896 14.447 5.972 30.146 11.024 47.122 13.523 33.721 4.967 73.272 12.344 109.414 4.921m10.654-1.231c-2.104.084-4.725-.354-4.915 1.639 1.783 1.53 4.782 1.371 4.915-1.639m22.128-48.356c.582 3.028 4.978 2.125 4.512-1.23-2.234-.317-3.202.632-4.512 1.23m34.012 21.309c-11.016-.266-24.605-4.071-36.063-3.685-4.396.146-9.739 1.198-11.062 5.73 3.381 1.372 7.003.549 11.062.416 13.291-.449 29.531 5.523 36.063-2.461m11.066-.82c-1.917-.004-2.482 1.348-2.869 2.865.527.565 1.779.412 2.869.416-.195-1.813.562-2.041 0-3.281m24.178-1.637c-2-.304-2.745 2.183-2.05 3.28 1.289.195 1.601-.586 2.461-.823.296-1.252-.707-1.206-.411-2.457m34.009 2.457c-8.389-.894-18.186-.341-25.813.823 4.491 4.229 20.622 1.53 25.813-.823m-394.21-249.151c4.042 2.246 7.772 6.978 13.114 6.558-1.443-1.971-3.489-3.341-4.92-5.325 1.522-.12 2.815-.463 3.279-1.64-4.984-3.487-11.376-7.746-13.932-12.297 1.687 3.269 4.269 8.477 2.459 12.704m52.453 3.282c-.877-.898-.482-3.073-1.641-3.688-.261 1.783.893 4.276 1.641 3.688m-37.701 35.653c.628 6.747 4.94 9.806 5.327 16.8-4.79-5.454-7.464-13.027-10.654-20.083-.313 8.535 2.267 13.823 4.508 19.674 1.725 4.496 3.342 9.773 7.785 11.063 2.075-.387 1.959-2.966 4.101-3.281 2.278.328 3.464 3.904 4.915 3.692-1.094-1.23-1.435-3.21-1.639-5.327.396-1.518 2.566-1.26 3.277-2.462-4.121-8.443-10.028-15.105-17.62-20.076" clip-rule="evenodd"/>
</symbol>
<symbol id="git-svgrepo-com" viewBox="0 0 32 32"><path d="M30.428 14.663 17.333 1.569c-.35-.349-.833-.565-1.367-.565s-1.017.216-1.367.565l-2.713 2.718 3.449 3.449a2.296 2.296 0 0 1 2.903 2.942l.005-.016 3.322 3.324a2.296 2.296 0 1 1-1.374 1.288l-.006.015-3.11-3.094v8.154a2.3 2.3 0 1 1-2.65.438c.211-.211.462-.382.741-.502l.015-.006v-8.234a2.305 2.305 0 0 1-1.239-3.027l-.006.015-3.389-3.405-8.98 8.974c-.348.351-.562.834-.562 1.368s.215 1.017.563 1.368L14.664 30.43c.349.35.832.566 1.366.566s1.016-.216 1.366-.566L30.43 17.396a1.925 1.925 0 0 0 0-2.732z"/>
</symbol>
<symbol id="github-142-svgrepo-com" viewBox="0 0 20 20"><path fill-rule="evenodd" d="M10 0c5.523 0 10 4.59 10 10.253 0 4.529-2.862 8.371-6.833 9.728-.507.101-.687-.219-.687-.492 0-.338.012-1.442.012-2.814 0-.956-.32-1.58-.679-1.898 2.227-.254 4.567-1.121 4.567-5.059 0-1.12-.388-2.034-1.03-2.752.104-.259.447-1.302-.098-2.714 0 0-.838-.275-2.747 1.051A9.4 9.4 0 0 0 10 4.958a9.4 9.4 0 0 0-2.503.345C5.586 3.977 4.746 4.252 4.746 4.252c-.543 1.412-.2 2.455-.097 2.714-.639.718-1.03 1.632-1.03 2.752 0 3.928 2.335 4.808 4.556 5.067-.286.256-.545.708-.635 1.371-.57.262-2.018.715-2.91-.852 0 0-.529-.985-1.533-1.057 0 0-.975-.013-.068.623 0 0 .655.315 1.11 1.5 0 0 .587 1.83 3.369 1.21.005.857.014 1.665.014 1.909 0 .271-.184.588-.683.493C2.865 18.627 0 14.783 0 10.253 0 4.59 4.478 0 10 0"/>
</symbol>
<symbol id="html-124-svgrepo-com" viewBox="-1 0 20 20"><path fill-rule="evenodd" d="M14.435 6H5.812l.206 2h8.212c-.12 1.752-.484 5.464-.618 7.153l-4.613 1.298v.004l-.01.005-4.615-1.624L4.058 11H6.32l.16 2.063L8.993 14H9l2.51-.9.258-3.1h-7.81c-.038-.401-.524-5.608-.608-6h11.288c-.063.66-.127 1.338-.202 2M0 0l1.638 18.148L8.99 20l7.37-1.889L18 0z"/>
</symbol>
<symbol id="html-5-svgrepo-com" viewBox="0 0 32 32"><path d="M6 28 4 3h24l-2 25-10 3z"/><path d="M26 5H16v24.5l8-2.5z"/><path d="M9.5 17.5 8.5 8H24l-.5 3h-12l.5 3.5h11L22 24l-6 2-6-2-.5-5h3l.5 2.5 3 1 3-1 .5-4z"/>
</symbol>
<symbol id="js-official-svgrepo-com" viewBox="0 0 32 32"><path d="M2 2h28v28H2z"/><path d="M20.809 23.875a2.87 2.87 0 0 0 2.6 1.6c1.09 0 1.787-.545 1.787-1.3 0-.9-.716-1.222-1.916-1.747l-.658-.282c-1.9-.809-3.16-1.822-3.16-3.964 0-1.973 1.5-3.476 3.853-3.476a3.89 3.89 0 0 1 3.742 2.107L25 18.128A1.79 1.79 0 0 0 23.311 17a1.145 1.145 0 0 0-1.259 1.128c0 .789.489 1.109 1.618 1.6l.658.282c2.236.959 3.5 1.936 3.5 4.133 0 2.369-1.861 3.667-4.36 3.667a5.06 5.06 0 0 1-4.795-2.691Zm-9.295.228c.413.733.789 1.353 1.693 1.353.864 0 1.41-.338 1.41-1.653v-8.947h2.631v8.982c0 2.724-1.6 3.964-3.929 3.964a4.085 4.085 0 0 1-3.947-2.4Z"/>
</symbol>
<symbol id="js01-svgrepo-com" viewBox="0 0 512 512"><path fill-rule="evenodd" d="M1.008.5C.438.583.48 1.27.521 1.958v508.974c169.364 1.135 340.808.162 510.979.486V.5zm258.885 451.667c-11.822 11.919-30.478 18.938-53.429 18.938-37.643 0-58.543-18.34-71.884-43.711a968 968 0 0 1 39.344-23.795c5.456 15.262 23.886 32.42 44.683 21.857 13.183-6.699 11.661-27.01 11.661-49.054V236.53c-.042-.688-.083-1.375.482-1.458h47.116v117.529c0 42.598 3.044 78.387-17.973 99.566m210.803-42.25c-2.674 39.884-35.243 61.063-79.17 61.188-43.062.124-70.624-19.013-87.433-48.567 12.085-8.317 25.778-15.017 38.375-22.822 10.08 15.761 27.537 30.91 53.429 28.652 16.131-1.406 34.856-14.555 24.285-34.482-5.127-9.66-17.516-14.567-28.656-19.425-35.352-15.424-76.828-29.571-72.861-84.992 1.327-18.514 9.852-31.525 20.889-40.796 11.311-9.5 26.46-15.867 46.629-16.511 36.629-1.173 56.723 15.12 70.429 37.884-11.664 8.891-24.514 16.608-37.401 24.281-4.229-12.995-24.644-25.658-41.772-17.969-7.789 3.493-14.788 13.761-10.684 26.224 3.66 11.115 18.589 17.199 30.599 22.344 36.352 15.56 76.977 30.767 73.342 84.991" clip-rule="evenodd"/>
</symbol>
<symbol id="mongo-svgrepo-com" viewBox="0 0 32 32"><path d="m16.62 30-.751-.249s.1-3.8-1.275-4.067c-.9-1.048.133-44.741 3.423-.149a2.7 2.7 0 0 0-1.333 1.523A14 14 0 0 0 16.62 30"/><path d="M17.026 26.329a13.22 13.22 0 0 0 5-13.225c-1.47-6.485-4.951-8.617-5.326-9.431a10 10 0 0 1-.825-1.6l.277 18.069s-.574 5.522.874 6.187"/><path d="M15.487 26.569S9.366 22.4 9.72 15.025a15.54 15.54 0 0 1 5.519-11.648A1.73 1.73 0 0 0 15.846 2c.381.82.319 12.243.359 13.579.155 5.197-.289 10.009-.718 10.99"/>
</symbol>
<symbol id="node-js-svgrepo-com" viewBox="0 0 32 32"><path d="m15.245.203-12.49 7.24a1.5 1.5 0 0 0-.75 1.313V23.24c0 .542.286 1.042.75 1.307l12.495 7.25a1.5 1.5 0 0 0 1.505 0l12.49-7.245c.464-.271.75-.771.75-1.307V8.755c0-.542-.286-1.042-.755-1.313L16.756.202a1.5 1.5 0 0 0-1.505 0z"/>
</symbol>
<symbol id="react-svgrepo-com" viewBox="0 0 32 32"><path d="M18.679 15.976c0-1.435-1.2-2.597-2.679-2.597-1.48 0-2.679 1.162-2.679 2.597 0 1.434 1.2 2.597 2.679 2.597 1.48 0 2.679-1.163 2.679-2.597"/><path fill-rule="evenodd" d="M24.7 11.154c.566-2.23 1.277-6.363-1.23-7.764-2.495-1.395-5.742 1.278-7.456 2.883-1.71-1.589-5.048-4.25-7.552-2.845-2.494 1.4-1.725 5.465-1.147 7.708-2.327.64-6.315 2.02-6.315 4.84 0 2.811 3.984 4.313 6.297 4.953-.58 2.255-1.311 6.262 1.186 7.659 2.514 1.405 5.842-1.194 7.572-2.816 1.726 1.614 4.942 4.23 7.437 2.83 2.504-1.406 1.852-5.484 1.273-7.74 2.242-.641 6.235-2.11 6.235-4.886 0-2.793-4.01-4.184-6.3-4.822m-.284 8.513a29 29 0 0 0-1.519-3.685 29 29 0 0 0 1.46-3.631c1.679.472 5.361 1.55 5.361 3.625 0 2.094-3.533 3.183-5.302 3.691m-1.566 7.859c-1.862 1.045-4.628-1.456-5.902-2.645a29 29 0 0 0 2.514-3.096 31 31 0 0 0 4.064-.607c.407 1.595 1.194 5.298-.676 6.348m-13.726-.015c-1.863-1.041-1.011-4.616-.584-6.278a31 31 0 0 0 4.042.568 31 31 0 0 0 2.576 3.085c-1.083 1.015-4.163 3.671-6.034 2.625M2.28 15.976c0-2.102 3.661-3.173 5.378-3.643a29 29 0 0 0 1.462 3.673 30 30 0 0 0-1.48 3.726c-1.637-.454-5.36-1.653-5.36-3.756M9.104 4.504c1.87-1.05 4.77 1.506 6.012 2.656a30 30 0 0 0-2.556 3.066c-1.41.127-2.761.33-4.003.604-.466-1.81-1.321-5.278.547-6.326m11.275 7.073c.957.117 1.875.273 2.736.464a26 26 0 0 1-.96 2.504 41 41 0 0 0-1.776-2.968m-4.365-3.529a27 27 0 0 1 1.766 2.066 39 39 0 0 0-3.546 0 28 28 0 0 1 1.78-2.066m-6.157 6.496a27 27 0 0 1-.954-2.517 30 30 0 0 1 2.72-.452 36 36 0 0 0-1.766 2.97m1.793 5.922a28 28 0 0 1-2.764-.431c.264-.83.59-1.692.972-2.568a36 36 0 0 0 1.792 2.999m4.4 3.525a28 28 0 0 1-1.805-2.094q1.783.069 3.566-.006a27 27 0 0 1-1.761 2.1m6.117-6.569c.4.886.739 1.744 1.007 2.559a28 28 0 0 1-2.798.462 41 41 0 0 0 1.79-3.02m-3.42 3.172a41.5 41.5 0 0 1-5.463.01 35 35 0 0 1-2.746-4.598 35 35 0 0 1 2.73-4.59 37.4 37.4 0 0 1 5.469 0 39 39 0 0 1 2.739 4.572 39 39 0 0 1-2.729 4.606M22.83 4.467c1.87 1.046 1.038 4.76.63 6.376a32 32 0 0 0-4.012-.615 29 29 0 0 0-2.536-3.069c1.258-1.175 4.066-3.728 5.918-2.692" clip-rule="evenodd"/>
</symbol>
<symbol id="redis-svgrepo-com" viewBox="0 0 32 32"><path d="M31.99 19.12c-.01.307-.417.646-1.245 1.078-1.708.891-10.552 4.531-12.438 5.51-1.885.984-2.927.974-4.417.26-1.49-.708-10.901-4.516-12.599-5.323-.844-.406-1.276-.745-1.292-1.068v3.234c0 .323.448.661 1.292 1.068 1.698.813 11.115 4.615 12.599 5.323 1.49.714 2.531.724 4.417-.26 1.885-.979 10.729-4.62 12.438-5.51.87-.448 1.255-.802 1.255-1.12v-3.188q-.001-.006-.01-.005zm0-5.271c-.016.302-.417.641-1.245 1.078-1.708.885-10.552 4.526-12.438 5.505-1.885.984-2.927.974-4.417.266-1.49-.714-10.901-4.516-12.599-5.328-.844-.401-1.276-.745-1.292-1.068v3.234c0 .323.448.667 1.292 1.068 1.698.813 11.109 4.615 12.599 5.328 1.49.708 2.531.719 4.417-.26 1.885-.984 10.729-4.62 12.438-5.51.87-.453 1.255-.807 1.255-1.125v-3.188zm0-5.474c.016-.323-.406-.609-1.266-.922-1.661-.609-10.458-4.109-12.141-4.729-1.682-.615-2.37-.589-4.349.12-1.979.714-11.339 4.385-13.005 5.036-.833.328-1.24.63-1.224.953v3.234c0 .323.443.661 1.292 1.068 1.693.813 11.109 4.615 12.599 5.328 1.484.708 2.531.719 4.417-.266 1.88-.979 10.729-4.62 12.438-5.505.865-.453 1.25-.807 1.25-1.125V8.374zm-20.532 3.063 7.417-1.135-2.24 3.281zm16.401-2.959L23 10.401l-4.385-1.734 4.854-1.917zM14.984 5.302l-.719-1.323 2.24.875 2.109-.688-.573 1.365 2.151.807-2.771.286-.625 1.495-1-1.667-3.203-.286zm-5.526 1.87c2.193 0 3.964.688 3.964 1.531 0 .849-1.776 1.536-3.964 1.536s-3.964-.688-3.964-1.536c0-.844 1.776-1.531 3.964-1.531"/>
</symbol>
<symbol id="redux-svgrepo-com" viewBox="0 0 32 32"><path d="M21.787 21.556a2.114 2.114 0 0 0 1.909-2.177c-.039-1.126-.993-2.027-2.138-2.027h-.077a2.115 2.115 0 0 0-2.061 2.177 2.14 2.14 0 0 0 .61 1.389c-1.297 2.515-3.283 4.354-6.26 5.893-2.024 1.05-4.123 1.426-6.223 1.163-1.718-.225-3.054-.976-3.894-2.214-1.222-1.84-1.336-3.829-.305-5.818.725-1.426 1.87-2.477 2.596-3.003a20 20 0 0 1-.497-1.914c-5.535 3.941-4.963 9.27-3.283 11.786 1.26 1.876 3.818 3.04 6.643 3.04.763 0 1.527-.075 2.29-.263 4.887-.938 8.59-3.79 10.69-8.032m6.719-4.654c-2.901-3.34-7.177-5.18-12.064-5.18h-.61a2.1 2.1 0 0 0-1.871-1.126h-.077a2.115 2.115 0 0 0-2.061 2.177c.038 1.126.992 2.027 2.138 2.027h.076a2.15 2.15 0 0 0 1.87-1.276h.688c2.901 0 5.65.825 8.132 2.44 1.908 1.238 3.283 2.852 4.046 4.804.65 1.576.61 3.115-.076 4.429-1.07 1.989-2.863 3.077-5.23 3.077-1.527 0-2.978-.45-3.742-.788a23 23 0 0 1-1.718 1.351c1.642.751 3.322 1.164 4.925 1.164 3.665 0 6.376-1.99 7.406-3.979 1.107-2.177 1.031-5.93-1.832-9.12M9.112 22.194c.039 1.126.993 2.027 2.138 2.027h.077a2.115 2.115 0 0 0 2.061-2.177c-.038-1.126-.993-2.027-2.138-2.027h-.076c-.076 0-.191 0-.267.037-1.566-2.552-2.215-5.33-1.985-8.332.152-2.252.916-4.204 2.252-5.818 1.107-1.388 3.245-2.064 4.696-2.101 4.046-.076 5.764 4.879 5.879 6.868.496.113 1.336.376 1.909.563-.459-6.08-4.276-9.233-7.941-9.233-3.436 0-6.605 2.44-7.865 6.043-1.756 4.804-.61 9.42 1.527 13.061-.19.263-.305.676-.267 1.089"/>
</symbol>
<symbol id="sqlite-svgrepo-com" viewBox="0 0 32 32"><path d="M23.192 3.242H5.623a2.147 2.147 0 0 0-2.141 2.141v19.376A2.147 2.147 0 0 0 5.623 26.9h11.572c-.132-5.758 1.835-16.932 5.997-23.658"/><path d="M22.554 3.867H5.623a1.52 1.52 0 0 0-1.516 1.516v17.962a42 42 0 0 1 13.569-2.684 123.6 123.6 0 0 1 4.878-16.794"/><path d="M27.29 2.608c-1.2-1.073-2.66-.642-4.1.634q-.32.286-.638.625A25.4 25.4 0 0 0 17.1 15a10 10 0 0 1 .634 1.822c.036.14.069.272.1.384.062.265.1.437.1.437s-.022-.083-.113-.346l-.059-.17-.038-.094c-.16-.373-.6-1.16-.8-1.5-.167.493-.315.954-.438 1.371a12 12 0 0 1 .908 2.8s-.03-.115-.171-.515a19 19 0 0 0-.9-1.708 4 4 0 0 0-.264 1.724 6 6 0 0 1 .493 1.383c.334 1.283.566 2.846.566 2.846l.02.263a26 26 0 0 0 .065 3.205 11.4 11.4 0 0 0 .584 3.1l.18-.1a13.9 13.9 0 0 1-.478-4.628 35.3 35.3 0 0 1 1.938-9.688c2.01-5.308 4.8-9.568 7.35-11.6-2.326 2.1-5.474 8.9-6.417 11.418a45.7 45.7 0 0 0-2.254 8A6.2 6.2 0 0 1 21.39 20s1.233-1.521 2.674-3.693a26 26 0 0 0-2.755.733c-.7.294-.889.394-.889.394a24 24 0 0 1 4.215-2.007c2.676-4.215 5.592-10.2 2.656-12.824"/>
</symbol>
<symbol id="tailwind-svgrepo-com" viewBox="0 0 32 32"><path d="M9 13.7q1.4-5.6 7-5.6c5.6 0 6.3 4.2 9.1 4.9q2.8.7 4.9-2.1-1.4 5.6-7 5.6c-5.6 0-6.3-4.2-9.1-4.9q-2.8-.7-4.9 2.1m-7 8.4q1.4-5.6 7-5.6c5.6 0 6.3 4.2 9.1 4.9q2.8.7 4.9-2.1-1.4 5.6-7 5.6c-5.6 0-6.3-4.2-9.1-4.9q-2.8-.7-4.9 2.1"/>
</symbol>
<symbol id="terminal-bash-svgrepo-com" viewBox="0 0 16 16"><path d="M13.655 3.56 8.918.75a1.79 1.79 0 0 0-1.82 0L2.363 3.56a1.89 1.89 0 0 0-.921 1.628v5.624a1.89 1.89 0 0 0 .913 1.627l4.736 2.812a1.79 1.79 0 0 0 1.82 0l4.736-2.812a1.89 1.89 0 0 0 .913-1.627V5.188a1.89 1.89 0 0 0-.904-1.627zm-3.669 8.781v.404a.15.15 0 0 1-.07.124l-.239.137c-.038.02-.07 0-.07-.053v-.396a.78.78 0 0 1-.545.053.07.07 0 0 1-.027-.09l.086-.365a.15.15 0 0 1 .071-.096.05.05 0 0 1 .038 0 .66.66 0 0 0 .497-.063.66.66 0 0 0 .37-.567c0-.206-.112-.292-.384-.293-.344 0-.661-.066-.67-.574A1.47 1.47 0 0 1 9.6 9.437V9.03a.15.15 0 0 1 .07-.126l.231-.147c.038-.02.07 0 .07.054v.409a.75.75 0 0 1 .453-.055.073.073 0 0 1 .03.095l-.081.362a.16.16 0 0 1-.065.09.06.06 0 0 1-.035 0 .6.6 0 0 0-.436.072.55.55 0 0 0-.331.486c0 .185.098.242.425.248.438 0 .627.199.632.639a1.57 1.57 0 0 1-.576 1.185zm2.481-.68a.1.1 0 0 1-.036.092l-1.198.727a.034.034 0 0 1-.04.003.04.04 0 0 1-.016-.037v-.31a.09.09 0 0 1 .055-.076l1.179-.706a.035.035 0 0 1 .056.035v.273zm.827-6.914L8.812 7.515c-.559.331-.97.693-.97 1.367v5.52c0 .404.165.662.413.741a1.5 1.5 0 0 1-.248.025c-.264 0-.522-.072-.748-.207L2.522 12.15a1.56 1.56 0 0 1-.75-1.338V5.188a1.56 1.56 0 0 1 .75-1.34l4.738-2.81a1.46 1.46 0 0 1 1.489 0l4.736 2.812a1.55 1.55 0 0 1 .728 1.083c-.154-.334-.508-.427-.92-.185h.002z"/>
</symbol>
<symbol id="typescript-icon-svgrepo-com" viewBox="0 0 256 256"><path d="M0 128v128h256V0H0z"/><path d="m56.611 128.85-.081 10.483h33.32v94.68h23.569v-94.68h33.32v-10.28c0-5.69-.122-10.444-.284-10.566-.122-.162-20.399-.244-44.983-.203l-44.739.122zm149.956-10.742c6.501 1.626 11.459 4.51 16.01 9.224 2.357 2.52 5.851 7.112 6.136 8.209.08.325-11.053 7.802-17.798 11.987-.244.163-1.22-.894-2.317-2.52-3.291-4.794-6.745-6.867-12.028-7.232-7.76-.529-12.759 3.535-12.718 10.32 0 1.992.284 3.17 1.097 4.796 1.707 3.535 4.876 5.648 14.832 9.955 18.326 7.884 26.168 13.085 31.045 20.48 5.445 8.25 6.664 21.415 2.966 31.208-4.063 10.646-14.14 17.88-28.323 20.277-4.388.772-14.79.65-19.504-.203-10.28-1.829-20.033-6.908-26.047-13.572-2.357-2.601-6.949-9.387-6.664-9.875.122-.162 1.178-.812 2.356-1.503 1.138-.65 5.446-3.13 9.509-5.486l7.355-4.267 1.544 2.276c2.154 3.291 6.867 7.802 9.712 9.305 8.167 4.308 19.383 3.698 24.909-1.26 2.357-2.153 3.332-4.388 3.332-7.68 0-2.966-.366-4.266-1.91-6.5-1.99-2.845-6.054-5.243-17.595-10.24-13.206-5.69-18.895-9.225-24.096-14.833-3.007-3.25-5.852-8.452-7.03-12.8-.975-3.616-1.22-12.678-.447-16.335 2.723-12.76 12.353-21.658 26.25-24.3 4.51-.853 14.994-.528 19.424.57"/>
</symbol>
<symbol id="typescript-svgrepo-com" viewBox="0 0 15 15"><path fill-rule="evenodd" d="M0 0h15v15H0zm10 6a2 2 0 1 0 0 4h1a1 1 0 1 1 0 2h-1a1 1 0 0 1-1-1H8a2 2 0 0 0 2 2h1a2 2 0 1 0 0-4h-1a1 1 0 0 1 0-2h1.167c.46 0 .833.373.833.833V8h1v-.167C13 6.821 12.18 6 11.167 6zM3 6h5v1H6v6H5V7H3z" clip-rule="evenodd"/>
</symbol>
<symbol id="vscode-svgrepo-com" viewBox="0 0 32 32"><path d="m29.01 5.03-5.766-2.776a1.74 1.74 0 0 0-1.989.338L2.38 19.8a1.166 1.166 0 0 0-.08 1.647q.037.04.077.077l1.541 1.4a1.165 1.165 0 0 0 1.489.066L28.142 5.75A1.158 1.158 0 0 1 30 6.672v-.067a1.75 1.75 0 0 0-.99-1.575"/><path d="m29.01 26.97-5.766 2.777a1.745 1.745 0 0 1-1.989-.338L2.38 12.2a1.166 1.166 0 0 1-.08-1.647q.037-.04.077-.077l1.541-1.4A1.165 1.165 0 0 1 5.41 9.01l22.732 17.24A1.158 1.158 0 0 0 30 25.328v.072a1.75 1.75 0 0 1-.99 1.57"/><path d="M23.244 29.747a1.745 1.745 0 0 1-1.989-.338A1.025 1.025 0 0 0 23 28.684V3.316a1.024 1.024 0 0 0-1.749-.724 1.74 1.74 0 0 1 1.989-.339l5.765 2.772A1.75 1.75 0 0 1 30 6.6v18.8a1.75 1.75 0 0 1-.991 1.576Z"/>
</symbol></svg>