<svg width="32" height="41" viewBox="0 0 32 41" fill="none" xmlns="http://www.w3.org/2000/svg">
<path d="M18.2339 40.2406C16.7112 41.1897 15.1885 41.1897 13.761 40.2406C-8.41333 22.7777 -0.799811 0.379627 15.5692 0C34.2222 0 39.4564 23.7268 18.2339 40.2406Z" fill="#F1FAF7"/>
<path fill-rule="evenodd" clip-rule="evenodd" d="M6.94 8.70405C7.33561 8.54116 7.78049 8.75688 8.06089 9.08004C8.07515 9.09647 8.08967 9.1127 8.10446 9.12871C8.29774 9.33798 8.53149 9.50583 8.79156 9.62209C9.05162 9.73835 9.33258 9.80061 9.61741 9.80509C9.90225 9.80957 10.185 9.75618 10.4486 9.64815C10.7122 9.54012 10.9511 9.3797 11.1509 9.17662C11.3507 8.97353 11.5071 8.73201 11.6108 8.46667C11.7144 8.20134 11.7632 7.91772 11.754 7.633C11.7529 7.59807 11.7509 7.56322 11.748 7.52848C11.7142 7.1171 11.86 6.66832 12.2337 6.49301L12.8489 6.2044C13.1937 6.06069 13.5813 6.05877 13.9276 6.19907C14.2738 6.33936 14.5508 6.61054 14.6983 6.95376L15.4226 8.62663C15.3951 8.68177 15.369 8.73781 15.3445 8.79469L15.3434 8.79733L10.5704 19.8223L10.051 21.0029L5.62631 10.7643C5.49272 10.4329 5.48912 10.0632 5.61621 9.72923C5.74331 9.39523 5.99175 9.12148 6.31189 8.96269L6.94 8.70405ZM23.8851 11.7029C24.1624 11.3771 24.6073 11.162 25.0029 11.3249L25.6664 11.5981C25.9949 11.761 26.2499 12.0419 26.3803 12.3846C26.5107 12.7274 26.507 13.1067 26.3699 13.4468L20.873 26.1664C20.7216 26.5186 20.4374 26.7969 20.0821 26.9409C19.7268 27.0848 19.329 27.0829 18.9752 26.9354L12.3328 24.105C11.9806 23.9536 11.7023 23.6694 11.5584 23.3141C11.4144 22.9588 11.4164 22.561 11.5638 22.2072L12.2837 20.5711L17.0608 9.53663C17.2122 9.18444 17.4964 8.90617 17.8517 8.76221C18.207 8.61825 18.6047 8.62022 18.9586 8.76769L19.6075 9.07213C19.9812 9.24744 20.1274 9.69586 20.0899 10.1069C20.086 10.149 20.0834 10.1913 20.0821 10.2336C20.0726 10.5258 20.1226 10.8168 20.229 11.0891C20.3354 11.3614 20.496 11.6092 20.7009 11.8176C20.9059 12.026 21.1511 12.1906 21.4216 12.3014C21.692 12.4123 21.9822 12.4671 22.2745 12.4625C22.5668 12.4579 22.8551 12.394 23.1219 12.2747C23.3888 12.1554 23.6287 11.9832 23.827 11.7684C23.8468 11.747 23.8662 11.7251 23.8851 11.7029Z" fill="#00704A"/>
</svg>
